<mxfile host="Electron" modified="2024-04-05T17:59:57.311Z" agent="Mozilla/5.0 (Windows NT 10.0; Win64; x64) AppleWebKit/537.36 (KHTML, like Gecko) draw.io/24.1.0 Chrome/120.0.6099.109 Electron/28.1.0 Safari/537.36" etag="qjpqA9xS9yHQqwIRZmTN" version="24.1.0" type="device">
  <diagram name="PÃ¡gina-1" id="vttqIXCooYT7LXvry8j_">
    <mxGraphModel dx="875" dy="524" grid="1" gridSize="10" guides="1" tooltips="1" connect="1" arrows="1" fold="1" page="1" pageScale="1" pageWidth="827" pageHeight="1169" math="0" shadow="0">
      <root>
        <mxCell id="0" />
        <mxCell id="1" parent="0" />
        <mxCell id="DPNQgT72bvlpsfycCGp9-1" value="" style="rounded=0;whiteSpace=wrap;html=1;" vertex="1" parent="1">
          <mxGeometry x="190" y="130" width="480" height="550" as="geometry" />
        </mxCell>
        <mxCell id="DPNQgT72bvlpsfycCGp9-4" style="rounded=0;orthogonalLoop=1;jettySize=auto;html=1;exitX=0.5;exitY=0.5;exitDx=0;exitDy=0;exitPerimeter=0;endArrow=none;endFill=0;" edge="1" parent="1" source="DPNQgT72bvlpsfycCGp9-2" target="DPNQgT72bvlpsfycCGp9-3">
          <mxGeometry relative="1" as="geometry" />
        </mxCell>
        <mxCell id="DPNQgT72bvlpsfycCGp9-36" style="rounded=0;orthogonalLoop=1;jettySize=auto;html=1;exitX=0.5;exitY=0.5;exitDx=0;exitDy=0;exitPerimeter=0;endArrow=none;endFill=0;" edge="1" parent="1" source="DPNQgT72bvlpsfycCGp9-2" target="DPNQgT72bvlpsfycCGp9-35">
          <mxGeometry relative="1" as="geometry" />
        </mxCell>
        <mxCell id="DPNQgT72bvlpsfycCGp9-2" value="usuario operador" style="shape=umlActor;verticalLabelPosition=bottom;verticalAlign=top;html=1;outlineConnect=0;" vertex="1" parent="1">
          <mxGeometry x="100" y="360" width="30" height="60" as="geometry" />
        </mxCell>
        <mxCell id="DPNQgT72bvlpsfycCGp9-3" value="procesar paquetes" style="ellipse;whiteSpace=wrap;html=1;" vertex="1" parent="1">
          <mxGeometry x="240" y="390" width="120" height="70" as="geometry" />
        </mxCell>
        <mxCell id="DPNQgT72bvlpsfycCGp9-11" value="&amp;lt;&amp;lt;extend&amp;gt;&amp;gt;" style="rounded=0;orthogonalLoop=1;jettySize=auto;html=1;exitX=0.5;exitY=1;exitDx=0;exitDy=0;dashed=1;" edge="1" parent="1" source="DPNQgT72bvlpsfycCGp9-5" target="DPNQgT72bvlpsfycCGp9-3">
          <mxGeometry relative="1" as="geometry" />
        </mxCell>
        <mxCell id="DPNQgT72bvlpsfycCGp9-5" value="ingresar datos de paquete" style="ellipse;whiteSpace=wrap;html=1;" vertex="1" parent="1">
          <mxGeometry x="274" y="210" width="120" height="70" as="geometry" />
        </mxCell>
        <mxCell id="DPNQgT72bvlpsfycCGp9-6" value="mostrar datos de paquete" style="ellipse;whiteSpace=wrap;html=1;" vertex="1" parent="1">
          <mxGeometry x="370" y="270" width="120" height="50" as="geometry" />
        </mxCell>
        <mxCell id="DPNQgT72bvlpsfycCGp9-7" value="validar datos" style="ellipse;whiteSpace=wrap;html=1;" vertex="1" parent="1">
          <mxGeometry x="540" y="510" width="120" height="70" as="geometry" />
        </mxCell>
        <mxCell id="DPNQgT72bvlpsfycCGp9-8" value="recibir datos" style="ellipse;whiteSpace=wrap;html=1;" vertex="1" parent="1">
          <mxGeometry x="510" y="230" width="120" height="60" as="geometry" />
        </mxCell>
        <mxCell id="DPNQgT72bvlpsfycCGp9-9" value="hacer consulta" style="ellipse;whiteSpace=wrap;html=1;" vertex="1" parent="1">
          <mxGeometry x="414" y="460" width="120" height="60" as="geometry" />
        </mxCell>
        <mxCell id="DPNQgT72bvlpsfycCGp9-14" value="&amp;lt;&amp;lt;extend&amp;gt;&amp;gt;" style="rounded=0;orthogonalLoop=1;jettySize=auto;html=1;exitX=0.5;exitY=0;exitDx=0;exitDy=0;entryX=0.5;entryY=1;entryDx=0;entryDy=0;dashed=1;" edge="1" parent="1" source="DPNQgT72bvlpsfycCGp9-10" target="DPNQgT72bvlpsfycCGp9-3">
          <mxGeometry relative="1" as="geometry" />
        </mxCell>
        <mxCell id="DPNQgT72bvlpsfycCGp9-10" value="regitrar paquete" style="ellipse;whiteSpace=wrap;html=1;" vertex="1" parent="1">
          <mxGeometry x="380" y="552" width="120" height="65" as="geometry" />
        </mxCell>
        <mxCell id="DPNQgT72bvlpsfycCGp9-12" value="sistema api" style="shape=umlActor;verticalLabelPosition=bottom;verticalAlign=top;html=1;outlineConnect=0;" vertex="1" parent="1">
          <mxGeometry x="720" y="220" width="30" height="60" as="geometry" />
        </mxCell>
        <mxCell id="DPNQgT72bvlpsfycCGp9-22" style="rounded=0;orthogonalLoop=1;jettySize=auto;html=1;exitX=0.5;exitY=0.5;exitDx=0;exitDy=0;exitPerimeter=0;entryX=1;entryY=0;entryDx=0;entryDy=0;startArrow=none;startFill=0;endArrow=none;endFill=0;" edge="1" parent="1" source="DPNQgT72bvlpsfycCGp9-13" target="DPNQgT72bvlpsfycCGp9-7">
          <mxGeometry relative="1" as="geometry" />
        </mxCell>
        <mxCell id="DPNQgT72bvlpsfycCGp9-26" style="rounded=0;orthogonalLoop=1;jettySize=auto;html=1;exitX=0.5;exitY=0.5;exitDx=0;exitDy=0;exitPerimeter=0;endArrow=none;endFill=0;" edge="1" parent="1" source="DPNQgT72bvlpsfycCGp9-13" target="DPNQgT72bvlpsfycCGp9-6">
          <mxGeometry relative="1" as="geometry" />
        </mxCell>
        <mxCell id="DPNQgT72bvlpsfycCGp9-13" value="sistema DB" style="shape=umlActor;verticalLabelPosition=bottom;verticalAlign=top;html=1;outlineConnect=0;" vertex="1" parent="1">
          <mxGeometry x="730" y="450" width="30" height="60" as="geometry" />
        </mxCell>
        <mxCell id="DPNQgT72bvlpsfycCGp9-19" value="&amp;lt;&amp;lt;include&amp;gt;&amp;gt;" style="rounded=0;orthogonalLoop=1;jettySize=auto;html=1;exitX=1;exitY=1;exitDx=0;exitDy=0;dashed=1;" edge="1" parent="1" source="DPNQgT72bvlpsfycCGp9-15" target="DPNQgT72bvlpsfycCGp9-7">
          <mxGeometry relative="1" as="geometry" />
        </mxCell>
        <mxCell id="DPNQgT72bvlpsfycCGp9-15" value="enviar datos" style="ellipse;whiteSpace=wrap;html=1;" vertex="1" parent="1">
          <mxGeometry x="440" y="340" width="120" height="60" as="geometry" />
        </mxCell>
        <mxCell id="DPNQgT72bvlpsfycCGp9-16" value="&amp;lt;&amp;lt;include&amp;gt;&amp;gt;" style="rounded=0;orthogonalLoop=1;jettySize=auto;html=1;exitX=1;exitY=0;exitDx=0;exitDy=0;entryX=0.014;entryY=0.593;entryDx=0;entryDy=0;entryPerimeter=0;dashed=1;" edge="1" parent="1" source="DPNQgT72bvlpsfycCGp9-3" target="DPNQgT72bvlpsfycCGp9-15">
          <mxGeometry relative="1" as="geometry" />
        </mxCell>
        <mxCell id="DPNQgT72bvlpsfycCGp9-17" style="rounded=0;orthogonalLoop=1;jettySize=auto;html=1;exitX=0.5;exitY=0.5;exitDx=0;exitDy=0;exitPerimeter=0;entryX=0.971;entryY=0.34;entryDx=0;entryDy=0;entryPerimeter=0;endArrow=none;endFill=0;" edge="1" parent="1" source="DPNQgT72bvlpsfycCGp9-12" target="DPNQgT72bvlpsfycCGp9-8">
          <mxGeometry relative="1" as="geometry" />
        </mxCell>
        <mxCell id="DPNQgT72bvlpsfycCGp9-18" value="&amp;lt;&amp;lt;include&amp;gt;&amp;gt;" style="rounded=0;orthogonalLoop=1;jettySize=auto;html=1;exitX=1;exitY=0.5;exitDx=0;exitDy=0;entryX=0.051;entryY=0.329;entryDx=0;entryDy=0;entryPerimeter=0;dashed=1;" edge="1" parent="1" source="DPNQgT72bvlpsfycCGp9-3" target="DPNQgT72bvlpsfycCGp9-9">
          <mxGeometry relative="1" as="geometry" />
        </mxCell>
        <mxCell id="DPNQgT72bvlpsfycCGp9-25" style="rounded=0;orthogonalLoop=1;jettySize=auto;html=1;exitX=0.5;exitY=0.5;exitDx=0;exitDy=0;exitPerimeter=0;entryX=0.98;entryY=0.739;entryDx=0;entryDy=0;entryPerimeter=0;endArrow=none;endFill=0;" edge="1" parent="1" source="DPNQgT72bvlpsfycCGp9-12" target="DPNQgT72bvlpsfycCGp9-6">
          <mxGeometry relative="1" as="geometry" />
        </mxCell>
        <mxCell id="DPNQgT72bvlpsfycCGp9-27" value="&amp;lt;&amp;lt;include&amp;gt;&amp;gt;" style="rounded=0;orthogonalLoop=1;jettySize=auto;html=1;exitX=0;exitY=1;exitDx=0;exitDy=0;entryX=0.709;entryY=0.06;entryDx=0;entryDy=0;entryPerimeter=0;dashed=1;" edge="1" parent="1" source="DPNQgT72bvlpsfycCGp9-6" target="DPNQgT72bvlpsfycCGp9-3">
          <mxGeometry relative="1" as="geometry" />
        </mxCell>
        <mxCell id="DPNQgT72bvlpsfycCGp9-28" style="rounded=0;orthogonalLoop=1;jettySize=auto;html=1;exitX=0.5;exitY=0;exitDx=0;exitDy=0;entryX=0.56;entryY=1.018;entryDx=0;entryDy=0;entryPerimeter=0;dashed=1;" edge="1" parent="1" source="DPNQgT72bvlpsfycCGp9-7" target="DPNQgT72bvlpsfycCGp9-8">
          <mxGeometry relative="1" as="geometry" />
        </mxCell>
        <mxCell id="DPNQgT72bvlpsfycCGp9-31" value="&amp;lt;&amp;lt;include&amp;gt;&amp;gt;" style="edgeLabel;html=1;align=center;verticalAlign=middle;resizable=0;points=[];" vertex="1" connectable="0" parent="DPNQgT72bvlpsfycCGp9-28">
          <mxGeometry x="0.3294" y="-3" relative="1" as="geometry">
            <mxPoint as="offset" />
          </mxGeometry>
        </mxCell>
        <mxCell id="DPNQgT72bvlpsfycCGp9-29" value="almacenar datos" style="ellipse;whiteSpace=wrap;html=1;" vertex="1" parent="1">
          <mxGeometry x="490" y="150" width="120" height="60" as="geometry" />
        </mxCell>
        <mxCell id="DPNQgT72bvlpsfycCGp9-30" style="rounded=0;orthogonalLoop=1;jettySize=auto;html=1;exitX=0.5;exitY=0.5;exitDx=0;exitDy=0;exitPerimeter=0;entryX=0.928;entryY=0.743;entryDx=0;entryDy=0;entryPerimeter=0;endArrow=none;endFill=0;" edge="1" parent="1" source="DPNQgT72bvlpsfycCGp9-12" target="DPNQgT72bvlpsfycCGp9-29">
          <mxGeometry relative="1" as="geometry" />
        </mxCell>
        <mxCell id="DPNQgT72bvlpsfycCGp9-32" style="rounded=0;orthogonalLoop=1;jettySize=auto;html=1;exitX=0.5;exitY=0;exitDx=0;exitDy=0;entryX=0.419;entryY=0.978;entryDx=0;entryDy=0;entryPerimeter=0;dashed=1;" edge="1" parent="1" source="DPNQgT72bvlpsfycCGp9-9" target="DPNQgT72bvlpsfycCGp9-15">
          <mxGeometry relative="1" as="geometry" />
        </mxCell>
        <mxCell id="DPNQgT72bvlpsfycCGp9-33" value="&amp;lt;&amp;lt;inclide&amp;gt;&amp;gt;" style="edgeLabel;html=1;align=center;verticalAlign=middle;resizable=0;points=[];" vertex="1" connectable="0" parent="DPNQgT72bvlpsfycCGp9-32">
          <mxGeometry x="-0.084" relative="1" as="geometry">
            <mxPoint as="offset" />
          </mxGeometry>
        </mxCell>
        <mxCell id="DPNQgT72bvlpsfycCGp9-34" value="Diagrama de caso de uso: Operador procesando paquete.&lt;div&gt;NÃºmero: DCU02&lt;/div&gt;" style="text;html=1;align=left;verticalAlign=middle;whiteSpace=wrap;rounded=0;" vertex="1" parent="1">
          <mxGeometry x="274" y="30" width="216" height="30" as="geometry" />
        </mxCell>
        <mxCell id="DPNQgT72bvlpsfycCGp9-35" value="iniciar sesion" style="ellipse;whiteSpace=wrap;html=1;" vertex="1" parent="1">
          <mxGeometry x="210" y="500" width="120" height="70" as="geometry" />
        </mxCell>
        <mxCell id="DPNQgT72bvlpsfycCGp9-39" value="&amp;lt;&amp;lt;exend&amp;gt;&amp;gt;" style="rounded=0;orthogonalLoop=1;jettySize=auto;html=1;dashed=1;" edge="1" parent="1" source="DPNQgT72bvlpsfycCGp9-37" target="DPNQgT72bvlpsfycCGp9-35">
          <mxGeometry relative="1" as="geometry" />
        </mxCell>
        <mxCell id="DPNQgT72bvlpsfycCGp9-37" value="ingresar datos" style="ellipse;whiteSpace=wrap;html=1;" vertex="1" parent="1">
          <mxGeometry x="250" y="600" width="120" height="65" as="geometry" />
        </mxCell>
        <mxCell id="DPNQgT72bvlpsfycCGp9-40" style="rounded=0;orthogonalLoop=1;jettySize=auto;html=1;exitX=1;exitY=0.5;exitDx=0;exitDy=0;entryX=0.008;entryY=0.431;entryDx=0;entryDy=0;entryPerimeter=0;" edge="1" parent="1" source="DPNQgT72bvlpsfycCGp9-35" target="DPNQgT72bvlpsfycCGp9-7">
          <mxGeometry relative="1" as="geometry" />
        </mxCell>
        <mxCell id="DPNQgT72bvlpsfycCGp9-41" value="&amp;lt;&amp;lt;include&amp;gt;&amp;gt;" style="edgeLabel;html=1;align=center;verticalAlign=middle;resizable=0;points=[];" vertex="1" connectable="0" parent="DPNQgT72bvlpsfycCGp9-40">
          <mxGeometry x="0.4504" y="1" relative="1" as="geometry">
            <mxPoint as="offset" />
          </mxGeometry>
        </mxCell>
      </root>
    </mxGraphModel>
  </diagram>
</mxfile>
